<?xml version="1.0" encoding="UTF-8"?>
<!DOCTYPE svg PUBLIC "-//W3C//DTD SVG 1.1//EN" "http://www.w3.org/Graphics/SVG/1.1/DTD/svg11.dtd">
<!-- Creator: CorelDRAW (Versão de avaliação) -->
<svg xmlns="http://www.w3.org/2000/svg" xml:space="preserve" width="23.222mm" height="12.4689mm" version="1.1" style="shape-rendering:geometricPrecision; text-rendering:geometricPrecision; image-rendering:optimizeQuality; fill-rule:evenodd; clip-rule:evenodd"
viewBox="0 0 36492 19594"
 xmlns:xlink="http://www.w3.org/1999/xlink"
 xmlns:xodm="http://www.corel.com/coreldraw/odm/2003">
 <defs>
  <style type="text/css">
   <![CDATA[
    .fil0 {fill:#FEFEFE}
   ]]>
  </style>
 </defs>
 <g id="Camada_x0020_1">
  <metadata id="CorelCorpID_0Corel-Layer"/>
  <g id="_1748129606784">
   <path class="fil0" d="M1618 16385c-27,-205 517,-835 1636,-1892 1209,-1207 1964,-2599 2265,-4176 81,-410 81,-567 18,-982 -243,-1590 -1070,-3002 -2490,-4236 -670,-578 -1137,-1077 -1407,-1496 458,-597 1231,-929 2319,-998 1142,2101 1771,4463 1883,7086 0,2570 -634,5092 -1905,7564 -822,-4 -1595,-295 -2319,-873l0 1z"/>
   <path class="fil0" d="M5582 9712l261 -5c-9,2564 -643,5081 -1905,7550 -822,-4 -1595,-297 -2319,-878 -27,-206 517,-840 1636,-1902 1209,-1213 1964,-2613 2265,-4199 45,-241 67,-396 63,-566l0 0z"/>
   <path class="fil0" d="M7370 0c1092,0 1977,905 1977,2022 0,1117 -885,2023 -1977,2023 -1092,0 -1977,-905 -1977,-2023 0,-1117 885,-2022 1977,-2022z"/>
   <path class="fil0" d="M7370 15639c1092,0 1977,885 1977,1978 0,1092 -885,1977 -1977,1977 -1092,0 -1977,-885 -1977,-1977 0,-1092 885,-1978 1977,-1978z"/>
   <path class="fil0" d="M13033 16385c27,-205 -517,-835 -1636,-1892 -1326,-1323 -2108,-2867 -2341,-4635 126,-1805 975,-3392 2548,-4759 670,-578 1137,-1077 1407,-1496 -458,-597 -1231,-929 -2319,-998 -1141,2101 -1771,4463 -1883,7086 0,2570 634,5092 1906,7564 822,-4 1595,-295 2319,-873l0 1z"/>
   <path class="fil0" d="M13033 16385c27,-205 -517,-835 -1636,-1892 -1209,-1207 -1964,-2599 -2265,-4176 -81,-410 -81,-567 -18,-982 243,-1590 1070,-3002 2490,-4236 670,-578 1137,-1077 1407,-1496 -458,-597 -1231,-929 -2319,-998 -1141,2101 -1766,4463 -1883,7086 0,2570 634,5092 1906,7564 822,-4 1595,-295 2319,-873l0 1z"/>
   <path class="fil0" d="M9069 9712l-261 -5c9,2564 643,5081 1906,7550 822,-4 1595,-297 2319,-878 27,-206 -517,-840 -1636,-1902 -1209,-1213 -1964,-2613 -2265,-4199 -45,-241 -67,-396 -63,-566l0 0z"/>
   <polygon class="fil0" points="0,9977 5842,9977 5842,9527 0,9527 "/>
   <polygon class="fil0" points="8808,9977 36492,9977 36492,9527 8808,9527 "/>
   <path class="fil0" d="M15459 8753l0 -3001 607 0 0 3001 -607 0zm3159 0l-575 0 0 -1108c0,-235 -14,-387 -36,-455 -27,-69 -67,-123 -121,-160 -54,-39 -121,-58 -202,-58 -99,0 -189,27 -269,82 -81,54 -135,127 -162,216 -31,90 -45,256 -45,500l0 983 -575 0 0 -2175 530 0 0 319c193,-244 431,-365 719,-365 130,0 247,23 350,68 108,46 189,104 243,174 54,71 90,151 112,242 23,91 32,219 32,387l0 1350 0 -1zm377 -612l575 -88c27,111 76,195 148,253 77,58 184,86 319,86 148,0 256,-27 333,-82 49,-38 76,-90 76,-154 0,-43 -14,-80 -40,-108 -27,-27 -94,-53 -193,-76 -463,-103 -759,-196 -881,-281 -175,-118 -261,-281 -261,-490 0,-189 76,-348 225,-476 148,-129 377,-193 692,-193 297,0 517,49 661,146 144,98 247,242 301,433l-544 101c-22,-85 -67,-151 -130,-196 -68,-46 -157,-68 -279,-68 -153,0 -261,21 -328,63 -45,30 -67,69 -67,116 0,41 22,77 58,105 54,39 234,93 539,162 310,70 521,155 643,256 121,102 184,245 184,428 0,199 -85,371 -252,514 -166,143 -413,215 -741,215 -297,0 -530,-60 -701,-179 -175,-119 -288,-281 -342,-487l5 0zm3528 -1563l0 457 -395 0 0 880c0,179 5,283 14,313 4,29 22,53 49,73 27,19 58,29 99,29 54,0 130,-18 229,-55l49 447c-130,58 -283,85 -454,85 -103,0 -193,-17 -279,-52 -81,-34 -144,-80 -180,-135 -40,-56 -67,-131 -81,-226 -14,-67 -18,-203 -18,-407l0 -952 -265 0 0 -457 265 0 0 -432 571 -339 0 771 395 0 0 1zm400 -293l0 -532 575 0 0 532 -575 0zm0 2469l0 -2175 575 0 0 2175 -575 0zm2162 -2175l0 457 -396 0 0 880c0,179 5,283 9,313 9,29 27,53 54,73 27,19 59,29 94,29 54,0 130,-18 234,-55l49 447c-135,58 -283,85 -454,85 -103,0 -198,-17 -279,-52 -85,-34 -144,-80 -184,-135 -36,-56 -63,-131 -81,-226 -9,-67 -18,-203 -18,-407l0 -952 -261 0 0 -457 261 0 0 -432 575 -339 0 771 396 0 0 1zm1838 2175l0 -325c-81,116 -184,208 -314,278 -130,69 -265,103 -409,103 -144,0 -274,-32 -391,-96 -117,-64 -202,-155 -252,-271 -54,-116 -81,-277 -81,-483l0 -1380 575 0 0 1002c0,306 9,494 31,563 23,69 59,124 117,164 54,41 126,61 211,61 99,0 189,-27 265,-81 81,-53 130,-121 162,-201 27,-80 41,-276 41,-588l0 -919 575 0 0 2175 -530 0 0 -1zm2117 -2175l0 457 -395 0 0 880c0,179 5,283 14,313 4,29 22,53 49,73 27,19 58,29 99,29 49,0 130,-18 229,-55l49 447c-135,58 -283,85 -454,85 -103,0 -193,-17 -279,-52 -81,-34 -144,-80 -184,-135 -36,-56 -63,-131 -81,-226 -9,-67 -18,-203 -18,-407l0 -952 -261 0 0 -457 261 0 0 -432 575 -339 0 771 395 0 0 1zm265 1062c0,-192 49,-377 144,-555 94,-179 225,-316 400,-410 171,-95 364,-141 575,-141 328,0 598,106 809,321 211,214 314,484 314,811 0,330 -108,603 -319,820 -211,216 -476,324 -800,324 -198,0 -387,-45 -571,-135 -180,-90 -315,-222 -409,-397 -94,-174 -144,-386 -144,-636l0 -1zm593 31c0,216 49,381 153,496 103,115 229,173 377,173 148,0 274,-58 377,-173 99,-114 153,-281 153,-500 0,-214 -54,-378 -153,-492 -103,-115 -229,-172 -377,-172 -148,0 -274,57 -377,172 -104,114 -153,280 -153,497l0 -1z"/>
   <path class="fil0" d="M15459 13428l0 -3002 971 0c369,0 607,14 719,44 171,45 315,143 432,294 117,151 175,346 175,585 0,185 -36,339 -103,465 -67,126 -148,224 -252,297 -104,71 -207,119 -315,142 -144,29 -350,43 -624,43l-396 0 0 1133 -607 0 0 -1zm607 -2495l0 855 333 0c234,0 395,-16 476,-48 77,-31 139,-80 189,-148 45,-67 67,-145 67,-234 0,-110 -32,-200 -99,-271 -63,-71 -144,-116 -243,-134 -72,-14 -216,-21 -432,-21l-292 0zm2607 989l-517 -92c58,-212 157,-369 301,-471 144,-103 355,-153 638,-153 256,0 449,30 575,91 121,60 211,137 265,231 49,94 76,265 76,515l-9 671c0,190 9,332 27,423 18,91 49,188 104,292l-571 0c-13,-38 -31,-94 -54,-168 -9,-34 -18,-57 -22,-67 -94,96 -202,169 -310,216 -112,49 -234,73 -360,73 -220,0 -395,-61 -526,-183 -130,-121 -193,-275 -193,-461 0,-123 32,-232 90,-328 58,-95 139,-169 243,-221 108,-51 261,-95 459,-134 269,-50 454,-98 557,-141l0 -58c0,-112 -27,-191 -81,-240 -54,-48 -157,-71 -310,-71 -103,0 -184,20 -238,61 -58,41 -108,113 -139,215l-5 0zm773 465c-77,24 -189,54 -350,88 -162,34 -265,68 -315,100 -72,54 -112,121 -112,203 0,81 31,150 90,209 58,59 135,88 229,88 103,0 202,-34 297,-102 72,-52 117,-115 139,-191 14,-49 22,-142 22,-280l0 -114zm1676 1040l-571 0 0 -2176 530 0 0 309c90,-146 175,-242 247,-288 72,-45 157,-68 252,-68 130,0 256,36 377,108l-180 502c-94,-63 -184,-94 -269,-94 -81,0 -148,22 -202,66 -58,44 -103,124 -135,240 -31,116 -49,359 -49,729l0 671 0 1zm1510 -1506l-521 -92c58,-212 162,-369 306,-471 144,-103 355,-153 638,-153 256,0 445,30 571,91 126,60 216,137 265,231 49,94 76,265 76,515l-9 671c0,190 9,332 27,423 18,91 54,188 103,292l-566 0c-18,-38 -36,-94 -58,-168 -9,-34 -14,-57 -18,-67 -99,96 -202,169 -314,216 -112,49 -229,73 -355,73 -225,0 -400,-61 -530,-183 -126,-121 -189,-275 -189,-461 0,-123 27,-232 85,-328 58,-95 139,-169 247,-221 103,-51 256,-95 454,-134 270,-50 459,-98 562,-141l0 -58c0,-112 -27,-191 -85,-240 -54,-48 -157,-71 -310,-71 -99,0 -180,20 -238,61 -58,41 -103,113 -139,215l0 0zm769 465c-72,24 -189,54 -351,88 -157,34 -261,68 -310,100 -77,54 -112,121 -112,203 0,81 27,150 90,209 58,59 135,88 229,88 103,0 202,-34 297,-102 67,-52 112,-115 135,-191 14,-49 23,-142 23,-280l0 -114zm1092 -1136l526 0 0 297c189,-228 413,-343 674,-343 139,0 261,29 364,85 103,58 184,144 252,259 94,-115 198,-203 310,-259 108,-58 225,-85 351,-85 162,0 297,31 404,97 112,65 193,159 247,286 41,92 63,242 63,450l0 1389 -575 0 0 -1242c0,-216 -18,-355 -58,-417 -54,-82 -135,-123 -247,-123 -81,0 -153,24 -225,74 -72,49 -126,122 -153,216 -32,94 -49,244 -49,449l0 1043 -571 0 0 -1190c0,-211 -14,-348 -32,-409 -22,-61 -54,-107 -99,-137 -40,-31 -99,-45 -171,-45 -90,0 -171,23 -243,71 -68,48 -121,116 -148,206 -31,90 -49,240 -49,448l0 1056 -571 0 0 -2176 0 -1zm3762 -293l0 -532 575 0 0 532 -575 0zm0 2469l0 -2176 575 0 0 2176 -575 0zm2157 -2176l0 457 -395 0 0 881c0,178 4,283 13,312 5,30 23,54 49,73 27,19 58,29 99,29 54,0 130,-18 229,-55l49 447c-135,58 -283,85 -454,85 -103,0 -193,-18 -279,-52 -81,-35 -144,-80 -180,-136 -40,-56 -67,-131 -81,-225 -13,-68 -18,-203 -18,-407l0 -953 -265 0 0 -457 265 0 0 -432 571 -340 0 771 395 0 0 0zm827 671l-517 -92c58,-212 157,-369 301,-471 144,-103 355,-153 638,-153 256,0 449,30 575,91 121,60 211,137 261,231 54,94 81,265 81,515l-9 671c0,190 9,332 27,423 18,91 49,188 103,292l-571 0c-14,-38 -31,-94 -54,-168 -9,-34 -18,-57 -23,-67 -94,96 -202,169 -314,216 -108,49 -229,73 -355,73 -220,0 -400,-61 -526,-183 -130,-121 -193,-275 -193,-461 0,-123 31,-232 85,-328 63,-95 144,-169 247,-221 108,-51 261,-95 458,-134 270,-50 454,-98 557,-141l0 -58c0,-112 -27,-191 -81,-240 -54,-48 -157,-71 -310,-71 -103,0 -184,20 -238,61 -59,41 -108,113 -144,215l0 0zm773 465c-76,24 -193,54 -351,88 -162,34 -265,68 -314,100 -72,54 -112,121 -112,203 0,81 31,150 90,209 59,59 135,88 229,88 103,0 202,-34 297,-102 67,-52 117,-115 139,-191 14,-49 22,-142 22,-280l0 -114zm926 428l575 -88c27,112 76,196 148,253 76,58 180,86 315,86 148,0 261,-27 337,-82 49,-39 76,-90 76,-155 0,-43 -14,-79 -41,-108 -31,-27 -94,-53 -193,-76 -463,-103 -759,-196 -881,-281 -175,-118 -261,-281 -261,-490 0,-189 76,-348 225,-477 148,-129 377,-193 687,-193 301,0 521,49 665,146 144,97 243,242 297,433l-539 101c-22,-85 -67,-150 -130,-196 -67,-45 -162,-68 -279,-68 -153,0 -261,22 -328,64 -45,30 -67,69 -67,116 0,41 18,76 58,105 54,39 229,93 539,162 305,69 521,155 643,256 121,103 180,245 180,429 0,199 -81,371 -247,514 -166,143 -413,215 -742,215 -297,0 -530,-60 -706,-179 -171,-119 -283,-281 -337,-487l4 0z"/>
  </g>
 </g>
</svg>
